HIERARCHY
ROOT Torso
{
	OFFSET 0.000000 0.000000 0.000000
	CHANNELS 6 Xposition Yposition Zposition Zrotation Yrotation Xrotation
	JOINT LHip
	{
		OFFSET 0.010000 0.000000 -0.060000
		CHANNELS 6 Xposition Yposition Zposition Zrotation Yrotation Xrotation
		JOINT LeftThigh
		{
			OFFSET 0.000000 -0.055000 -0.055000
			CHANNELS 6 Xposition Yposition Zposition Zrotation Yrotation Xrotation
			JOINT LeftLeg
			{
				OFFSET -0.015000 0.000000 -0.120000
				CHANNELS 6 Xposition Yposition Zposition Zrotation Yrotation Xrotation
				JOINT LeftFoot
				{
					OFFSET 0.010000 0.000000 -0.100000
					CHANNELS 6 Xposition Yposition Zposition Zrotation Yrotation Xrotation
					End Site
					{
						OFFSET -0.090000 0.000000 -0.035000
					}
				}
			}
		}
	}
	JOINT RHip
	{
		OFFSET 0.010000 0.000000 -0.060000
		CHANNELS 6 Xposition Yposition Zposition Zrotation Yrotation Xrotation
		JOINT RightThigh
		{
			OFFSET 0.000000 0.055000 -0.055000
			CHANNELS 6 Xposition Yposition Zposition Zrotation Yrotation Xrotation
			JOINT RightLeg
			{
				OFFSET -0.015000 0.000000 -0.120000
				CHANNELS 6 Xposition Yposition Zposition Zrotation Yrotation Xrotation
				JOINT RightFoot
				{
					OFFSET 0.010000 0.000000 -0.100000
					CHANNELS 6 Xposition Yposition Zposition Zrotation Yrotation Xrotation
					End Site
					{
						OFFSET -0.090000 0.000000 -0.035000
					}
				}
			}
		}
	}
	JOINT Neck
	{
		OFFSET 0.000000 -0.000000 0.040000
		CHANNELS 6 Xposition Yposition Zposition Zrotation Yrotation Xrotation
		JOINT Head
		{
			OFFSET 0.000000 -0.000000 0.100000
			CHANNELS 6 Xposition Yposition Zposition Zrotation Yrotation Xrotation
			End Site
			{
				OFFSET 0.000000 -0.000000 0.070000
			}
		}
	}
	JOINT LeftUpperarm
	{
		OFFSET 0.000000 -0.098000 0.075000
		CHANNELS 6 Xposition Yposition Zposition Zrotation Yrotation Xrotation
		JOINT LeftLowerarm
		{
			OFFSET -0.090000 0.000000 0.009000
			CHANNELS 6 Xposition Yposition Zposition Zrotation Yrotation Xrotation
			End Site
			{
				OFFSET -0.105000 0.000000 0.000000
			}
		}
	}
	JOINT RightUpperarm
	{
		OFFSET 0.000000 0.098000 0.075000
		CHANNELS 6 Xposition Yposition Zposition Zrotation Yrotation Xrotation
		JOINT RightLowerarm
		{
			OFFSET -0.090000 0.000000 0.009000
			CHANNELS 6 Xposition Yposition Zposition Zrotation Yrotation Xrotation
			End Site
			{
				OFFSET -0.105000 0.000000 0.000000
			}
		}
	}
}
MOTION
Frames: 5
Frame Time: 0.041667
0.000000 0.000000 0.000000 0.000000 -0.000000 0.000000 0.010000 -0.000000 -0.060002 24.583418 53.318803 22.585904 -0.000000 -0.054999 -0.055001 -109.984077 -7.893719 59.935764 -0.015000 0.000000 -0.120000 -3.232205 14.990336 1.474887 0.010000 -0.000000 -0.100000 113.040894 -36.302001 94.425234 0.009999 0.000002 -0.060000 149.598027 -52.543710 -69.765226 -0.000001 0.055000 -0.054999 -28.763897 -99.747195 142.057143 -0.015000 -0.000001 -0.120000 8.252317 6.048986 87.095799 0.009999 0.000001 -0.100001 116.440641 -3.461677 59.924200 -0.000000 0.000000 0.040002 -102.892893 5.400029 1.081155 -0.000001 0.000001 0.100002 -7.811062 -7.946253 10.765277 0.000000 -0.097998 0.075000 -30.363042 -121.238535 -28.419393 -0.090001 -0.000000 0.009000 16.308764 -0.407666 2.182558 -0.000000 0.097999 0.075000 141.083131 -109.351677 -179.044830 -0.090002 0.000000 0.009001 109.186776 35.716091 52.325792 
0.000000 0.000000 0.000000 0.000000 -0.000000 0.000000 0.010002 -0.000001 -0.060001 24.506517 53.265493 22.508767 -0.000000 -0.055000 -0.055001 -109.996529 -7.876052 59.868083 -0.015000 -0.000000 -0.120000 -3.227567 14.991975 1.472702 0.010000 -0.000001 -0.099999 113.085796 -36.287958 94.455663 0.009998 -0.000001 -0.059999 149.594434 -52.502117 -69.831069 0.000000 0.055001 -0.055000 -27.268456 -99.709629 140.952606 -0.015000 -0.000000 -0.120001 8.278432 6.182983 86.048916 0.010000 -0.000001 -0.100000 116.299680 -3.263370 59.981130 0.000000 -0.000001 0.040000 -102.944017 5.377536 1.051173 -0.000001 -0.000001 0.099998 -7.845677 -8.006075 10.766690 0.000001 -0.098000 0.075002 -30.445223 -121.451241 -28.764973 -0.090002 0.000000 0.009000 16.271430 -0.290731 2.196391 -0.000000 0.098002 0.074998 140.245053 -108.949830 -178.161236 -0.089998 0.000000 0.009001 109.723417 35.623169 52.440410 
0.000000 0.000000 0.000000 0.000000 -0.000000 0.000000 0.010002 0.000001 -0.059999 24.402253 53.185426 22.388120 -0.000001 -0.055001 -0.054999 -110.003892 -7.847436 59.766163 -0.015000 -0.000000 -0.120001 -3.222578 14.994697 1.469253 0.010000 -0.000001 -0.099998 113.119189 -36.272751 94.479138 0.009998 -0.000000 -0.060000 149.609912 -52.429475 -69.914534 -0.000002 0.055000 -0.054999 -25.682865 -99.666196 139.771092 -0.015002 0.000000 -0.119999 8.300393 6.338410 84.835437 0.010000 -0.000001 -0.100001 116.135127 -3.050929 60.036318 -0.000000 0.000001 0.040000 -102.980770 5.330233 1.015972 -0.000001 -0.000000 0.099996 -7.873622 -8.024216 10.766209 0.000000 -0.097999 0.075000 -30.463204 -121.543271 -28.787779 -0.089999 0.000001 0.008998 16.246670 -0.254102 2.202592 -0.000000 0.098000 0.075002 139.378835 -108.496483 -177.308719 -0.089998 0.000001 0.009000 110.091086 35.523787 52.550755 
0.000000 0.000000 0.000000 0.000000 -0.000000 0.000000 0.009999 0.000000 -0.059999 24.317961 53.131744 22.307803 0.000000 -0.055000 -0.054999 -110.016691 -7.836606 59.696215 -0.015000 -0.000001 -0.120000 -3.217265 14.996165 1.467499 0.010000 -0.000001 -0.099999 113.169568 -36.275312 94.502163 0.010000 -0.000000 -0.060000 149.599516 -52.397141 -69.991913 0.000001 0.055001 -0.055002 -23.847682 -99.616431 138.421720 -0.015000 0.000001 -0.120000 8.324584 6.511227 83.459844 0.010000 -0.000000 -0.100000 116.005354 -2.889763 60.072490 -0.000000 0.000001 0.040000 -103.028971 5.288910 0.979689 -0.000000 -0.000000 0.100000 -7.879451 -8.065941 10.761468 -0.000000 -0.098000 0.074998 -30.474163 -121.555675 -28.717052 -0.090000 -0.000001 0.009002 16.237697 -0.257776 2.207652 -0.000001 0.098001 0.075000 138.321863 -107.996192 -176.292947 -0.090002 -0.000000 0.009000 110.299099 35.431459 52.662521 
0.000000 0.000000 0.000000 0.000000 -0.000000 0.000000 0.009997 0.000001 -0.060000 24.195173 53.080842 22.142401 -0.000000 -0.055000 -0.055001 -110.000579 -7.771767 59.602990 -0.015000 0.000000 -0.120001 -3.211994 14.999674 1.463578 0.009999 -0.000001 -0.100000 113.209682 -36.275466 94.520386 0.010002 0.000001 -0.059999 149.584175 -52.328876 -70.027580 -0.000000 0.055000 -0.055001 -22.297163 -99.607135 137.356457 -0.015000 0.000001 -0.120001 8.340981 6.703506 81.931008 0.010001 -0.000002 -0.100001 115.896672 -2.733558 60.111552 -0.000000 0.000001 0.040000 -103.076789 5.257332 0.947573 -0.000001 -0.000000 0.100000 -7.886358 -8.130942 10.766329 0.000001 -0.098001 0.075002 -30.466933 -121.501853 -28.557021 -0.090000 0.000000 0.009000 16.247002 -0.299891 2.209730 -0.000001 0.098001 0.075002 137.059002 -107.444770 -175.131405 -0.090000 0.000000 0.009000 110.342225 35.344593 52.777350 
